<?xml version="1.0" encoding="utf-8"?>
<!-- Generator: Adobe Illustrator 27.5.0, SVG Export Plug-In . SVG Version: 6.00 Build 0)  -->
<svg version="1.0" xmlns="http://www.w3.org/2000/svg" xmlns:xlink="http://www.w3.org/1999/xlink" x="0px" y="0px"
	 viewBox="0 0 800 800" enable-background="new 0 0 800 800" xml:space="preserve">
<g id="_x31_">
	<polyline fill-rule="evenodd" clip-rule="evenodd" fill="#FFFFFF" points="27,56 27,56 753,56 	"/>
	<path fill-rule="evenodd" clip-rule="evenodd" fill="#323952" d="M573.2,514.9l0.2-0.4c2.7-6.8-2.7-14.3-2.7-14.3l16-33.2l-4.1-6.1
		l-40.9-19.1L519,476.9c0,0-15.7-8.8-23.9-18.4c-8.4-9.5-6.1-32.7-15-47.7c-4.1-6.6-12.5-11.4-20.7-14.3c-3-8.4-7.3-21.2-8.7-26.4
		c-2-8.2-1.3-23.9,0.7-28.7c1.1-3.1,0-11.6-0.9-17.1c0.9-2,1.8-1.8,2.3-4.3c12.9-1.3,39.1-8,38-8.1c-1.2-0.2-25.9-3.2-38.7-4.4
		c-0.4-2.3,0-1.6-0.9-3.6l34.6-21.8l-41.4,11.1c-1.8-1.8-1.1-3.2-3.4-4.5c3.7-4.8,19.1-35.9,17.5-34.6c-5.9,4.8-27.1,26.8-30,29.4
		c-2.7-0.9-5.7-1.6-8.7-1.8l-7.3-47.5l-5.6,47.3c-5.2,0.7-4.4,0.4-8.9,2.5c0,0-31.4-29.6-33-30.9c-1.8-1.4,18.9,35.9,18.9,35.9
		l-3,5.2l-25.7-6.8c-0.5,1.8-1,3.8-1.2,5.9l21.6,9.8l-0.6,4.1c0,0-10.7-0.7-18.2,0c0.7,3.2,1.8,6.1,3,8.9c5.9,0.7,15,2.3,15,2.3
		s0.5,0.9,1.3,2c1.2,2.1,2.8,4.8,4.2,7.1c0.6,13.2,3.6,18.5,3.6,18.5l-2.1,19.7c0,0-5.7-1.3-9.1-4.8c-3.4-3.3-12.3-13.4-13-22.9
		c-0.7-8.2-2.5-18.5-5.2-21.8c-0.9-1.8-5-14.1-5.7-19.8c-0.2-2.7-0.7-5.5-0.7-7.7c0-1.1,0-2,0-3.2H348c0-1.1,0-2.5,0-3.7
		c-0.7-21.1-15.7-56.7-15.7-64.2c0-7.4-0.6-23.8,0-36.1c0.7-12.3-9.5-23.2-9.5-23.2s1.4-3.4,4.8-7.5c1.4-1.6,1.8-3.5,1.8-5.2
		c8.7-1.8,14.8-5.2,14.8-9.1c0-1.2-0.6-2.3-1.8-3.5v-8.1c1.2-0.9,1.8-2.3,1.8-3.5c0-4.8-9.3-8.6-21.9-10c0-2.7,0-6.8,2.1-7.9
		c2.7-1.9,7.9-5.7,7.5-12.7c-0.4-7.1-0.2-11.2,1.4-13.7c1.6-2.5,5.5-6.1,5.5-6.1l-14.6,6.3L337.5,56c0,0-25.5,8-33.9,15.5
		c-6.1,5.4-10,11.8-5.5,25.7c1.9,5.7,4.2,10.9,7.3,13.9c-12.9,1.2-22.7,5.2-22.7,10.2c0,1,0.6,2.3,1.6,3.2v8.6
		c-0.9,1.1-1.6,2.3-1.6,3.2c0,3.4,4.8,6.3,11.8,8.4c-0.2,5.5,4.3,10.7,4.3,10.7c-0.2,0.2-3.4,5-4,17.1c-0.7,12.3,6.8,21.1,6.8,21.1
		s0.7,4.1,0.7,11.6c0,7.5,6.8,21.1,6.8,21.1s1.8,11.6,0.7,32.7c-1.4,21,9.6,58.5,9.6,58.5s-8.9,15.7-16.5,33.4
		c-7.5,17.8,15.1,42.3,15.1,42.3s14.3,40.2,15.5,56.4c0.5,5.6,1.4,23.8,2.3,46.6c-115.4,10.1-213.8,47-271.8,98.2
		c80.9-44.9,201.4-73.4,336.1-73.4c134.7,0,255.3,28.5,336.1,73.4C697.5,560.4,640.8,532.6,573.2,514.9L573.2,514.9z"/>
	<path fill-rule="evenodd" clip-rule="evenodd" fill="#323952" d="M222.8,336.9c0.3,82.7,55.6,147.3,86.6,177.1
		c1.2,1.2,3.1,1.2,4.4,0.1c1.3-1,1.6-2.9,0.6-4.3c-42.7-64.2-54.8-113.7-55.8-147.8c-0.7-0.2-1.2-0.6-1.6-1.2l-17.3-24.2
		L222.8,336.9L222.8,336.9z"/>
	<path fill-rule="evenodd" clip-rule="evenodd" fill="#323952" d="M118.6,393.1l-11.5,18.3l8.6,19.8c0.1,0.4,0.3,0.7,0.4,1.1
		c56.2,9.4,135.7,64.1,174.4,92.9c0.9,0.7,2.2,0.5,2.9-0.3c0.8-0.9,0.7-2.1-0.1-3C220.7,448.7,160.7,411.4,119,392.5
		C118.9,392.7,118.8,392.9,118.6,393.1L118.6,393.1z"/>
	<path fill-rule="evenodd" clip-rule="evenodd" fill="#B5342F" d="M246.9,323.5l13.8,19.3c0.6,0.8,1.5,1.2,2.4,1
		c0.5-0.1,1-0.4,1.4-0.7c0.3-0.3,0.5-0.6,0.6-1l6.9-22.7l22.6-7.1c0.4-0.1,0.7-0.3,1-0.6c0.4-0.4,0.6-0.8,0.7-1.4
		c0.1-1-0.2-1.9-1-2.4l-19.4-13.6l0.2-23.7c0-0.9-0.5-1.8-1.3-2.2c-0.9-0.4-1.9-0.3-2.6,0.2l-19,14.3l-22.5-7.5
		c-0.9-0.3-1.9-0.1-2.5,0.6c-0.7,0.7-0.9,1.6-0.6,2.5l7.7,22.4l-14.1,19.1c-0.6,0.8-0.6,1.8-0.2,2.6c0.4,0.8,1.3,1.4,2.2,1.3
		L246.9,323.5L246.9,323.5z"/>
	<path fill-rule="evenodd" clip-rule="evenodd" fill="#B5342F" d="M112,384.1c0.5-0.8,0.5-1.8,0-2.6c-0.5-0.8-1.4-1.2-2.3-1.2
		l-32.4,3l-20.9-25c-0.6-0.7-1.6-1-2.5-0.8c-0.4,0.1-0.8,0.3-1.2,0.6v0h0c-0.3,0.3-0.5,0.7-0.6,1.2l-7.1,31.8l-30.3,12.1
		c-0.3,0.1-0.6,0.3-0.8,0.6c-0.4,0.4-0.7,1-0.7,1.5c-0.1,0.9,0.4,1.8,1.2,2.3l28,16.6l2.2,32.5c0.1,0.9,0.7,1.8,1.5,2.1
		c0.9,0.4,1.9,0.2,2.6-0.4L73,437.1l31.6,7.9c0.9,0.2,1.8,0,2.4-0.6c0.1-0.1,0.1-0.1,0.1-0.1c0.6-0.7,0.8-1.7,0.4-2.6l-12.9-29.9
		L112,384.1L112,384.1z"/>
	<path fill-rule="evenodd" clip-rule="evenodd" fill="#323952" d="M136.7,343.3c10.4,19.7,29.7,44.3,64.8,71.7
		c2.1,1.6,4.8-1.1,3.1-3.2c-13.2-15.9-32.6-41.7-44-69l-14.3-5.9L136.7,343.3L136.7,343.3z"/>
	<path fill-rule="evenodd" clip-rule="evenodd" fill="#B5342F" d="M116.3,308.3l12.5,10.1l-1.2,16c-0.1,0.9,0.4,1.8,1.2,2.3
		c0.8,0.5,1.8,0.4,2.6-0.1l13.5-8.8l14.8,6.1c0.9,0.4,1.9,0.2,2.6-0.4c0.1,0,0.1-0.1,0.1-0.1c0.6-0.6,0.8-1.5,0.6-2.4l-4.2-15.5
		l10.4-12.2c0.6-0.7,0.8-1.7,0.4-2.6c-0.4-0.9-1.2-1.5-2.2-1.5l-16-0.8l-8.4-13.7c-0.5-0.8-1.4-1.2-2.3-1.2
		c-0.6,0.1-1.1,0.3-1.5,0.7c-0.3,0.2-0.5,0.5-0.6,0.9l-5.8,15l-15.6,3.8c-0.4,0.1-0.8,0.4-1.2,0.7c-0.3,0.3-0.6,0.7-0.6,1.2
		C115.2,306.8,115.6,307.7,116.3,308.3L116.3,308.3z"/>
	<g>
		<g>
			<path fill="#323952" d="M180.4,565.8h9.9v63.1h-9.9V565.8z"/>
			<path fill="#323952" d="M216.6,610.6l6.8-44.8h13.8v63.1h-9.4v-45.2l-6.8,45.2h-9.4l-7.4-44.6v44.6h-8.7v-63.1h13.8L216.6,610.6z
				"/>
			<path fill="#323952" d="M242.3,565.8h9.9v63.1h-9.9V565.8z"/>
			<path fill="#323952" d="M272.3,593.7h13.9v20c0,10.1-5,15.9-14.8,15.9c-9.7,0-14.8-5.8-14.8-15.9v-32.8c0-10.1,5-15.9,14.8-15.9
				c9.7,0,14.8,5.8,14.8,15.9v6.1h-9.4v-6.8c0-4.5-2-6.2-5.1-6.2c-3.2,0-5.1,1.7-5.1,6.2v34.1c0,4.5,2,6.1,5.1,6.1
				c3.2,0,5.1-1.6,5.1-6.1v-11.6h-4.5V593.7z"/>
			<path fill="#323952" d="M311.4,628.8c-0.5-1.6-0.9-2.6-0.9-7.8v-9.9c0-5.9-2-8-6.5-8h-3.4v25.7h-9.9v-63.1h15
				c10.3,0,14.7,4.8,14.7,14.5v5c0,6.5-2.1,10.7-6.5,12.8c5,2.1,6.6,6.8,6.6,13.4v9.7c0,3.1,0.1,5.3,1.1,7.7H311.4z M300.6,574.8
				v19.4h3.9c3.7,0,5.9-1.6,5.9-6.7v-6.2c0-4.5-1.5-6.5-5-6.5H300.6z"/>
			<path fill="#323952" d="M357,628.8h-10l-1.7-11.4h-12.2l-1.7,11.4h-9.1l10.1-63.1h14.5L357,628.8z M334.3,608.8h9.6l-4.8-31.9
				L334.3,608.8z"/>
			<path fill="#323952" d="M368.4,583.2v45.7h-8.9v-63.1h12.4l10.2,37.8v-37.8h8.8v63.1h-10.2L368.4,583.2z"/>
			<path fill="#323952" d="M393.2,565.8h30.6v9h-10.4v54.1h-9.9v-54.1h-10.4V565.8z"/>
			<path fill="#323952" d="M436.1,592.4h13.6v9h-13.6v18.5h17.1v9h-27v-63.1h27v9h-17.1V592.4z"/>
			<path fill="#323952" d="M469.3,565.8h9.9v54.1h16.3v9h-26.2V565.8z"/>
			<path fill="#323952" d="M507.8,592.4h13.6v9h-13.6v18.5h17.1v9h-27v-63.1h27v9h-17.1V592.4z"/>
			<path fill="#323952" d="M544,593.7h13.9v20c0,10.1-5,15.9-14.8,15.9c-9.7,0-14.8-5.8-14.8-15.9v-32.8c0-10.1,5-15.9,14.8-15.9
				c9.7,0,14.8,5.8,14.8,15.9v6.1h-9.4v-6.8c0-4.5-2-6.2-5.1-6.2s-5.1,1.7-5.1,6.2v34.1c0,4.5,2,6.1,5.1,6.1s5.1-1.6,5.1-6.1v-11.6
				H544V593.7z"/>
			<path fill="#323952" d="M594.3,628.8h-10l-1.7-11.4h-12.2l-1.7,11.4h-9.1l10.1-63.1h14.5L594.3,628.8z M571.7,608.8h9.6
				l-4.8-31.9L571.7,608.8z"/>
			<path fill="#323952" d="M597,565.8h9.9v54.1h16.3v9H597V565.8z"/>
		</g>
	</g>
</g>
<g id="Layer_1">
</g>
</svg>
